<svg width="84" height="42" viewBox="0 0 84 42" fill="none" xmlns="http://www.w3.org/2000/svg">
<path d="M0.351196 16.1639L9.05194 18.3078L10.3039 15.6338L6.49416 14.6961L16.623 6.21689L16.6135 19.4337L13.4457 17.1047L12.1938 19.7787L19.4282 25.0952L19.4334 0.213898L0.351196 16.1639Z" fill="#ffffff"/>
<path d="M27.9047 1.57132H31.1047V23.9713H27.9047V1.57132Z" fill="#ffffff"/>
<path d="M39.411 1.57132H48.851C51.219 1.57132 53.3203 2.04065 55.155 2.97932C56.9897 3.91798 58.4083 5.24065 59.411 6.94732C60.435 8.63265 60.947 10.574 60.947 12.7713C60.947 14.9687 60.435 16.9207 59.411 18.6273C58.4083 20.3127 56.9897 21.6247 55.155 22.5633C53.3203 23.502 51.219 23.9713 48.851 23.9713H39.411V1.57132ZM48.659 21.1873C50.4723 21.1873 52.0617 20.8353 53.427 20.1313C54.8137 19.4273 55.8803 18.446 56.627 17.1873C57.3737 15.9073 57.747 14.4353 57.747 12.7713C57.747 11.1073 57.3737 9.64598 56.627 8.38732C55.8803 7.10732 54.8137 6.11532 53.427 5.41132C52.0617 4.70732 50.4723 4.35532 48.659 4.35532H42.611V21.1873H48.659Z" fill="#ffffff"/>
<path d="M70.6485 4.35532V12.1633H81.8805V14.9153H70.6485V23.9713H67.4485V1.57132H83.2565V4.35532H70.6485Z" fill="#ffffff"/>
<path d="M9.55069 38.5411C9.37686 38.6901 9.16163 38.806 8.90502 38.8888C8.64841 38.9633 8.38351 39.0006 8.11034 39.0006C7.44811 39.0006 6.93488 38.8226 6.57065 38.4666C6.20643 38.1107 6.02431 37.6016 6.02431 36.9394V33.3261H4.9068V32.3451H6.02431V30.9048H7.21633V32.3451H9.10369V33.3261H7.21633V36.8897C7.21633 37.2457 7.30325 37.5188 7.47708 37.7092C7.6592 37.8996 7.91581 37.9948 8.24693 37.9948C8.61115 37.9948 8.92158 37.8913 9.17819 37.6844L9.55069 38.5411Z" fill="#ffffff"/>
<path d="M17.3421 35.6729C17.3421 35.7639 17.3338 35.8839 17.3172 36.0329H11.978C12.0525 36.6124 12.305 37.0801 12.7354 37.436C13.1741 37.7837 13.7163 37.9576 14.362 37.9576C15.1484 37.9576 15.7817 37.6927 16.2618 37.1629L16.9199 37.9327C16.6219 38.2804 16.2494 38.5453 15.8024 38.7274C15.3636 38.9095 14.8711 39.0006 14.3248 39.0006C13.6294 39.0006 13.0127 38.8598 12.4747 38.5784C11.9366 38.2887 11.5186 37.8872 11.2206 37.374C10.9308 36.8607 10.786 36.2813 10.786 35.6356C10.786 34.9982 10.9267 34.4229 11.2081 33.9097C11.4979 33.3964 11.8911 32.9991 12.3877 32.7176C12.8927 32.4279 13.4597 32.2831 14.0889 32.2831C14.718 32.2831 15.2767 32.4279 15.7651 32.7176C16.2618 32.9991 16.6467 33.3964 16.9199 33.9097C17.2013 34.4229 17.3421 35.0106 17.3421 35.6729ZM14.0889 33.2888C13.5177 33.2888 13.0376 33.4627 12.6485 33.8103C12.2677 34.158 12.0442 34.6133 11.978 35.1762H16.1997C16.1335 34.6216 15.9058 34.1704 15.5168 33.8227C15.136 33.4668 14.66 33.2888 14.0889 33.2888Z" fill="#ffffff"/>
<path d="M22.4864 39.0006C21.8159 39.0006 21.2158 38.8557 20.686 38.566C20.1645 38.2762 19.7547 37.8789 19.4567 37.374C19.1587 36.8607 19.0097 36.2813 19.0097 35.6356C19.0097 34.9899 19.1587 34.4146 19.4567 33.9097C19.7547 33.3964 20.1645 32.9991 20.686 32.7176C21.2158 32.4279 21.8159 32.2831 22.4864 32.2831C23.0824 32.2831 23.6122 32.4031 24.0758 32.6431C24.5476 32.8832 24.9118 33.2309 25.1684 33.6862L24.262 34.2697C24.0551 33.9552 23.7985 33.7193 23.4922 33.562C23.1859 33.4047 22.8465 33.3261 22.474 33.3261C22.0435 33.3261 21.6545 33.4213 21.3068 33.6117C20.9674 33.8021 20.6984 34.0752 20.4997 34.4312C20.3093 34.7788 20.2141 35.1803 20.2141 35.6356C20.2141 36.0992 20.3093 36.5089 20.4997 36.8649C20.6984 37.2125 20.9674 37.4816 21.3068 37.672C21.6545 37.8624 22.0435 37.9576 22.474 37.9576C22.8465 37.9576 23.1859 37.8789 23.4922 37.7216C23.7985 37.5644 24.0551 37.3284 24.262 37.0139L25.1684 37.585C24.9118 38.0403 24.5476 38.3921 24.0758 38.6405C23.6122 38.8805 23.0824 39.0006 22.4864 39.0006Z" fill="#ffffff"/>
<path d="M30.7617 32.2831C31.5977 32.2831 32.2599 32.5273 32.7483 33.0157C33.245 33.4958 33.4934 34.2035 33.4934 35.1389V38.9261H32.3013V35.2755C32.3013 34.6381 32.1482 34.158 31.8419 33.8352C31.5356 33.5123 31.0969 33.3509 30.5257 33.3509C29.8801 33.3509 29.371 33.5413 28.9985 33.9221C28.626 34.2946 28.4397 34.8326 28.4397 35.5363V38.9261H27.2477V29.7128H28.4397V33.2764C28.688 32.9618 29.0109 32.7176 29.4082 32.5438C29.8138 32.37 30.265 32.2831 30.7617 32.2831Z" fill="#ffffff"/>
<path d="M39.8342 32.2831C40.6702 32.2831 41.3325 32.5273 41.8209 33.0157C42.3176 33.4958 42.5659 34.2035 42.5659 35.1389V38.9261H41.3739V35.2755C41.3739 34.6381 41.2207 34.158 40.9144 33.8352C40.6082 33.5123 40.1694 33.3509 39.5983 33.3509C38.9526 33.3509 38.4435 33.5413 38.071 33.9221C37.6985 34.2946 37.5122 34.8326 37.5122 35.5363V38.9261H36.3202V32.3451H37.4626V33.3385C37.7026 32.9991 38.0255 32.7383 38.4311 32.5562C38.845 32.3741 39.3127 32.2831 39.8342 32.2831Z" fill="#ffffff"/>
<path d="M48.2477 39.0006C47.5938 39.0006 47.0061 38.8557 46.4846 38.566C45.9631 38.2762 45.5533 37.8789 45.2553 37.374C44.9656 36.8607 44.8207 36.2813 44.8207 35.6356C44.8207 34.9899 44.9656 34.4146 45.2553 33.9097C45.5533 33.3964 45.9631 32.9991 46.4846 32.7176C47.0061 32.4279 47.5938 32.2831 48.2477 32.2831C48.9017 32.2831 49.4853 32.4279 49.9985 32.7176C50.52 32.9991 50.9256 33.3964 51.2154 33.9097C51.5134 34.4146 51.6624 34.9899 51.6624 35.6356C51.6624 36.2813 51.5134 36.8607 51.2154 37.374C50.9256 37.8789 50.52 38.2762 49.9985 38.566C49.4853 38.8557 48.9017 39.0006 48.2477 39.0006ZM48.2477 37.9576C48.6699 37.9576 49.0466 37.8624 49.3777 37.672C49.7171 37.4733 49.982 37.2001 50.1724 36.8525C50.3627 36.4965 50.4579 36.0909 50.4579 35.6356C50.4579 35.1803 50.3627 34.7788 50.1724 34.4312C49.982 34.0752 49.7171 33.8021 49.3777 33.6117C49.0466 33.4213 48.6699 33.3261 48.2477 33.3261C47.8256 33.3261 47.4448 33.4213 47.1054 33.6117C46.7743 33.8021 46.5094 34.0752 46.3107 34.4312C46.1203 34.7788 46.0251 35.1803 46.0251 35.6356C46.0251 36.0909 46.1203 36.4965 46.3107 36.8525C46.5094 37.2001 46.7743 37.4733 47.1054 37.672C47.4448 37.8624 47.8256 37.9576 48.2477 37.9576Z" fill="#ffffff"/>
<path d="M53.9317 29.7128H55.1238V38.9261H53.9317V29.7128Z" fill="#ffffff"/>
<path d="M60.8392 39.0006C60.1852 39.0006 59.5975 38.8557 59.076 38.566C58.5545 38.2762 58.1447 37.8789 57.8467 37.374C57.557 36.8607 57.4121 36.2813 57.4121 35.6356C57.4121 34.9899 57.557 34.4146 57.8467 33.9097C58.1447 33.3964 58.5545 32.9991 59.076 32.7176C59.5975 32.4279 60.1852 32.2831 60.8392 32.2831C61.4931 32.2831 62.0767 32.4279 62.59 32.7176C63.1115 32.9991 63.5171 33.3964 63.8068 33.9097C64.1048 34.4146 64.2538 34.9899 64.2538 35.6356C64.2538 36.2813 64.1048 36.8607 63.8068 37.374C63.5171 37.8789 63.1115 38.2762 62.59 38.566C62.0767 38.8557 61.4931 39.0006 60.8392 39.0006ZM60.8392 37.9576C61.2614 37.9576 61.638 37.8624 61.9691 37.672C62.3085 37.4733 62.5734 37.2001 62.7638 36.8525C62.9542 36.4965 63.0494 36.0909 63.0494 35.6356C63.0494 35.1803 62.9542 34.7788 62.7638 34.4312C62.5734 34.0752 62.3085 33.8021 61.9691 33.6117C61.638 33.4213 61.2614 33.3261 60.8392 33.3261C60.417 33.3261 60.0362 33.4213 59.6968 33.6117C59.3657 33.8021 59.1008 34.0752 58.9022 34.4312C58.7118 34.7788 58.6166 35.1803 58.6166 35.6356C58.6166 36.0909 58.7118 36.4965 58.9022 36.8525C59.1008 37.2001 59.3657 37.4733 59.6968 37.672C60.0362 37.8624 60.417 37.9576 60.8392 37.9576Z" fill="#ffffff"/>
<path d="M72.8185 32.3451V38.0321C72.8185 39.1827 72.5329 40.0312 71.9618 40.5775C71.3906 41.1321 70.538 41.4094 69.4039 41.4094C68.7831 41.4094 68.1912 41.3225 67.6283 41.1487C67.0654 40.9831 66.6101 40.7431 66.2624 40.4285L66.8336 39.5097C67.1399 39.7745 67.5165 39.9815 67.9635 40.1305C68.4188 40.2878 68.8865 40.3664 69.3666 40.3664C70.1365 40.3664 70.7035 40.1843 71.0677 39.8201C71.4403 39.4558 71.6265 38.9012 71.6265 38.1562V37.6347C71.3451 37.9741 70.9974 38.2307 70.5835 38.4046C70.1779 38.5701 69.735 38.6529 69.2549 38.6529C68.6258 38.6529 68.0546 38.5204 67.5414 38.2556C67.0364 37.9824 66.6391 37.6057 66.3493 37.1256C66.0596 36.6372 65.9148 36.0826 65.9148 35.4618C65.9148 34.8409 66.0596 34.2904 66.3493 33.8103C66.6391 33.3219 67.0364 32.9453 67.5414 32.6804C68.0546 32.4155 68.6258 32.2831 69.2549 32.2831C69.7516 32.2831 70.211 32.3741 70.6332 32.5562C71.0636 32.7383 71.4154 33.0074 71.6886 33.3633V32.3451H72.8185ZM69.3915 37.6099C69.8219 37.6099 70.2068 37.5188 70.5462 37.3367C70.8939 37.1546 71.1629 36.9021 71.3533 36.5793C71.552 36.2482 71.6513 35.8757 71.6513 35.4618C71.6513 34.8244 71.4403 34.3111 71.0181 33.9221C70.5959 33.5247 70.0537 33.3261 69.3915 33.3261C68.721 33.3261 68.1746 33.5247 67.7525 33.9221C67.3303 34.3111 67.1192 34.8244 67.1192 35.4618C67.1192 35.8757 67.2144 36.2482 67.4048 36.5793C67.6035 36.9021 67.8725 37.1546 68.2119 37.3367C68.5595 37.5188 68.9528 37.6099 69.3915 37.6099Z" fill="#ffffff"/>
<path d="M81.5405 32.3451L78.3493 39.5842C78.0679 40.2547 77.7368 40.7265 77.356 40.9997C76.9835 41.2728 76.5323 41.4094 76.0026 41.4094C75.6797 41.4094 75.3652 41.3556 75.0589 41.248C74.7609 41.1487 74.5125 40.9997 74.3139 40.801L74.823 39.907C75.1624 40.2298 75.5556 40.3912 76.0026 40.3912C76.2923 40.3912 76.5323 40.3126 76.7227 40.1553C76.9214 40.0063 77.0994 39.7456 77.2567 39.3731L77.4678 38.9136L74.5622 32.3451H75.8039L78.101 37.6099L80.3733 32.3451H81.5405Z" fill="#ffffff"/>
</svg>
